<svg width="785" height="143" viewBox="0 0 785 143" fill="none" xmlns="http://www.w3.org/2000/svg">
<path d="M125.666 59.2188C127.894 54.7159 134.281 54.7158 136.509 59.2188L144.607 75.5828C145.195 76.7695 146.151 77.7311 147.33 78.3218L163.599 86.4672C168.076 88.7087 168.076 95.1329 163.599 97.3743L147.33 105.52C146.151 106.11 145.195 107.072 144.607 108.259L136.509 124.623C134.281 129.126 127.894 129.126 125.666 124.623L117.568 108.259C116.981 107.072 116.025 106.111 114.845 105.52L98.5762 97.3743C94.0995 95.1329 94.0995 88.7087 98.5762 86.4673L114.845 78.3218C116.025 77.7311 116.981 76.7695 117.568 75.5828L125.666 59.2188Z" fill="#FF6900"/>
<path d="M45.588 3.3772C47.8163 -1.12574 54.2031 -1.12573 56.4315 3.37721L69.5614 29.9094C70.1486 31.096 71.1046 32.0576 72.2844 32.6483L98.6619 45.8552C103.139 48.0966 103.139 54.5208 98.6619 56.7623L72.2844 69.9691C71.1046 70.5598 70.1486 71.5214 69.5614 72.7081L56.4315 99.2403C54.2031 103.743 47.8163 103.743 45.588 99.2402L32.458 72.7081C31.8708 71.5214 30.9148 70.5598 29.7351 69.9691L3.35752 56.7623C-1.11918 54.5208 -1.11917 48.0966 3.35753 45.8552L29.7351 32.6483C30.9148 32.0576 31.8708 31.096 32.458 29.9094L45.588 3.3772Z" fill="#FF6900"/>
<path d="M232.157 110.152C226.61 110.152 221.618 109.171 217.181 107.208C212.829 105.16 209.373 102.429 206.813 99.016C204.253 95.5173 202.887 91.6347 202.717 87.368H217.821C218.077 90.3547 219.485 92.872 222.045 94.92C224.69 96.8827 227.975 97.864 231.901 97.864C235.997 97.864 239.154 97.096 241.373 95.56C243.677 93.9387 244.829 91.8907 244.829 89.416C244.829 86.7707 243.549 84.808 240.989 83.528C238.514 82.248 234.546 80.84 229.085 79.304C223.794 77.8533 219.485 76.4453 216.157 75.08C212.829 73.7147 209.927 71.624 207.453 68.808C205.063 65.992 203.869 62.28 203.869 57.672C203.869 53.9173 204.978 50.504 207.197 47.432C209.415 44.2747 212.573 41.8 216.669 40.008C220.85 38.216 225.629 37.32 231.005 37.32C239.026 37.32 245.469 39.368 250.333 43.464C255.282 47.4747 257.927 52.9787 258.269 59.976H243.677C243.421 56.8187 242.141 54.3013 239.837 52.424C237.533 50.5467 234.418 49.608 230.493 49.608C226.653 49.608 223.709 50.3333 221.661 51.784C219.613 53.2347 218.589 55.1547 218.589 57.544C218.589 59.4213 219.271 61 220.637 62.28C222.002 63.56 223.666 64.584 225.629 65.352C227.591 66.0347 230.493 66.9307 234.333 68.04C239.453 69.4053 243.634 70.8133 246.877 72.264C250.205 73.6293 253.063 75.6773 255.453 78.408C257.842 81.1387 259.079 84.7653 259.165 89.288C259.165 93.2987 258.055 96.8827 255.837 100.04C253.618 103.197 250.461 105.672 246.365 107.464C242.354 109.256 237.618 110.152 232.157 110.152Z" fill="black"/>
<path d="M289.524 48.84C291.998 45.5973 295.369 42.8667 299.636 40.648C303.902 38.4293 308.724 37.32 314.1 37.32C320.244 37.32 325.833 38.856 330.868 41.928C335.988 44.9147 339.998 49.1387 342.9 54.6C345.801 60.0613 347.252 66.3333 347.252 73.416C347.252 80.4987 345.801 86.856 342.9 92.488C339.998 98.0347 335.988 102.387 330.868 105.544C325.833 108.616 320.244 110.152 314.1 110.152C308.724 110.152 303.945 109.085 299.764 106.952C295.582 104.733 292.169 102.003 289.524 98.76V142.536H274.932V38.472H289.524V48.84ZM332.404 73.416C332.404 68.552 331.38 64.3707 329.332 60.872C327.369 57.288 324.724 54.6 321.396 52.808C318.153 50.9307 314.654 49.992 310.9 49.992C307.23 49.992 303.732 50.9307 300.404 52.808C297.161 54.6853 294.516 57.416 292.468 61C290.505 64.584 289.524 68.808 289.524 73.672C289.524 78.536 290.505 82.8027 292.468 86.472C294.516 90.056 297.161 92.7867 300.404 94.664C303.732 96.5413 307.23 97.48 310.9 97.48C314.654 97.48 318.153 96.5413 321.396 94.664C324.724 92.7013 327.369 89.8853 329.332 86.216C331.38 82.5467 332.404 78.28 332.404 73.416Z" fill="black"/>
<path d="M356.818 73.416C356.818 66.3333 358.268 60.0613 361.17 54.6C364.156 49.1387 368.167 44.9147 373.202 41.928C378.322 38.856 383.954 37.32 390.098 37.32C395.644 37.32 400.466 38.4293 404.562 40.648C408.743 42.7813 412.071 45.4693 414.546 48.712V38.472H429.266V109H414.546V98.504C412.071 101.832 408.7 104.605 404.434 106.824C400.167 109.043 395.303 110.152 389.842 110.152C383.783 110.152 378.236 108.616 373.202 105.544C368.167 102.387 364.156 98.0347 361.17 92.488C358.268 86.856 356.818 80.4987 356.818 73.416ZM414.546 73.672C414.546 68.808 413.522 64.584 411.474 61C409.511 57.416 406.908 54.6853 403.666 52.808C400.423 50.9307 396.924 49.992 393.17 49.992C389.415 49.992 385.916 50.9307 382.674 52.808C379.431 54.6 376.786 57.288 374.738 60.872C372.775 64.3707 371.794 68.552 371.794 73.416C371.794 78.28 372.775 82.5467 374.738 86.216C376.786 89.8853 379.431 92.7013 382.674 94.664C386.002 96.5413 389.5 97.48 393.17 97.48C396.924 97.48 400.423 96.5413 403.666 94.664C406.908 92.7867 409.511 90.056 411.474 86.472C413.522 82.8027 414.546 78.536 414.546 73.672Z" fill="black"/>
<path d="M463.024 48.712C465.157 45.128 467.973 42.3547 471.472 40.392C475.056 38.344 479.28 37.32 484.144 37.32V52.424H480.432C474.714 52.424 470.362 53.8747 467.376 56.776C464.474 59.6773 463.024 64.712 463.024 71.88V109H448.432V38.472H463.024V48.712Z" fill="black"/>
<path d="M525.461 73.8L557.973 109H538.26L512.148 78.664V109H497.557V14.28H512.148V69.32L537.749 38.472H557.973L525.461 73.8Z" fill="black"/>
<path d="M583.023 14.28V109H568.432V14.28H583.023Z" fill="black"/>
<path d="M666.822 72.008C666.822 74.6533 666.651 77.0427 666.31 79.176H612.422C612.848 84.808 614.939 89.3307 618.694 92.744C622.448 96.1573 627.056 97.864 632.518 97.864C640.368 97.864 645.915 94.5787 649.158 88.008H664.902C662.768 94.4933 658.886 99.8267 653.254 104.008C647.707 108.104 640.795 110.152 632.518 110.152C625.776 110.152 619.718 108.659 614.342 105.672C609.051 102.6 604.87 98.3333 601.798 92.872C598.811 87.3253 597.318 80.9253 597.318 73.672C597.318 66.4187 598.768 60.0613 601.67 54.6C604.656 49.0533 608.795 44.7867 614.086 41.8C619.462 38.8133 625.606 37.32 632.518 37.32C639.174 37.32 645.104 38.7707 650.31 41.672C655.515 44.5733 659.568 48.6693 662.47 53.96C665.371 59.1653 666.822 65.1813 666.822 72.008ZM651.59 67.4C651.504 62.024 649.584 57.7147 645.83 54.472C642.075 51.2293 637.424 49.608 631.878 49.608C626.843 49.608 622.534 51.2293 618.95 54.472C615.366 57.6293 613.232 61.9387 612.549 67.4H651.59Z" fill="black"/>
<path d="M695.646 20.04V76.744C695.646 83.4853 697.395 88.5627 700.894 91.976C704.478 95.3893 709.427 97.096 715.742 97.096C722.142 97.096 727.091 95.3893 730.59 91.976C734.174 88.5627 735.966 83.4853 735.966 76.744V20.04H750.558V76.488C750.558 83.7413 748.979 89.8853 745.822 94.92C742.664 99.9547 738.44 103.709 733.15 106.184C727.859 108.659 722.014 109.896 715.614 109.896C709.214 109.896 703.368 108.659 698.078 106.184C692.872 103.709 688.733 99.9547 685.661 94.92C682.589 89.8853 681.054 83.7413 681.054 76.488V20.04H695.646Z" fill="black"/>
<path d="M784.148 20.04V109H769.557V20.04H784.148Z" fill="black"/>
</svg>
