<svg width="512" height="512" viewBox="0 0 512 512" fill="none" xmlns="http://www.w3.org/2000/svg">
<path d="M385.375 241.358C392.209 227.567 411.795 227.567 418.629 241.358L443.463 291.472C445.263 295.106 448.195 298.051 451.813 299.86L501.704 324.806C515.432 331.67 515.432 351.345 501.704 358.209L451.813 383.154C448.195 384.963 445.263 387.908 443.463 391.542L418.629 441.657C411.795 455.448 392.209 455.448 385.375 441.657L360.541 391.542C358.74 387.908 355.809 384.963 352.191 383.155L302.3 358.209C288.572 351.345 288.572 331.67 302.3 324.806L352.191 299.86C355.809 298.051 358.74 295.107 360.541 291.472L385.375 241.358Z" fill="#FF6900"/>
<path d="M139.803 70.3427C146.637 56.5524 166.223 56.5524 173.057 70.3427L213.322 151.597C215.122 155.232 218.054 158.177 221.672 159.985L302.563 200.432C316.292 207.296 316.292 226.97 302.563 233.834L221.672 274.281C218.054 276.089 215.122 279.034 213.322 282.669L173.057 363.923C166.223 377.714 146.637 377.714 139.803 363.923L99.538 282.669C97.7372 279.034 94.8054 276.089 91.1876 274.281L10.2964 233.834C-3.43215 226.97 -3.43213 207.296 10.2964 200.432L91.1876 159.985C94.8054 158.177 97.7372 155.232 99.538 151.597L139.803 70.3427Z" fill="#FF6900"/>
</svg>
